<svg xmlns="http://www.w3.org/2000/svg" version="1.1" xmlns:xlink="http://www.w3.org/1999/xlink" xmlns:svgjs="http://svgjs.com/svgjs" width="512" height="512" x="0" y="0" viewBox="0 0 24 24" style="enable-background:new 0 0 512 512" xml:space="preserve" class=""><g><g xmlns="http://www.w3.org/2000/svg" clip-rule="evenodd" fill="rgb(0,0,0)" fill-rule="evenodd"><path d="m5 12c0-.5523.44772-1 1-1h12c.5523 0 1 .4477 1 1s-.4477 1-1 1h-12c-.55228 0-1-.4477-1-1z" fill="#000000" data-original="#000000" class=""></path><path d="m10 7c0-1.10457.8954-2 2-2s2 .89543 2 2-.8954 2-2 2-2-.89543-2-2z" fill="#000000" data-original="#000000" class=""></path><path d="m10 17c0-1.1046.8954-2 2-2s2 .8954 2 2-.8954 2-2 2-2-.8954-2-2z" fill="#000000" data-original="#000000" class=""></path></g></g></svg>