<svg xmlns="http://www.w3.org/2000/svg" version="1.1" xmlns:xlink="http://www.w3.org/1999/xlink" xmlns:svgjs="http://svgjs.com/svgjs" width="512" height="512" x="0" y="0" viewBox="0 0 512 512" style="enable-background:new 0 0 512 512" xml:space="preserve" class=""><g><g xmlns="http://www.w3.org/2000/svg"><path d="m501.75 396.251c-13.668-13.668-35.83-13.668-49.498 0-6.286 6.287-14.645 9.749-23.535 9.749-9.217 0-16.717-7.499-16.717-16.716v-283.284h65c19.33 0 35-15.67 35-35s-15.67-35-35-35h-313.897c-60.053 0-116.546 26.459-154.99 72.594-12.375 14.85-10.368 36.92 4.481 49.294 6.544 5.453 14.487 8.113 22.388 8.113 10.027 0 19.985-4.289 26.906-12.595 17.869-21.443 41.712-36.37 68.112-43.198v123.078c0 66.994-12.616 132.502-37.497 194.704-7.179 17.948 1.551 38.316 19.498 45.496 4.264 1.705 8.661 2.513 12.988 2.513 13.89 0 27.034-8.327 32.508-22.011 28.204-70.506 42.503-144.761 42.503-220.701v-127.287h142v283.284c0 47.816 38.901 86.716 86.716 86.716 27.588 0 53.525-10.743 73.033-30.251 13.668-13.669 13.668-35.829.001-49.498z" fill="#000000" data-original="#000000" class=""></path></g></g></svg>