<svg xmlns="http://www.w3.org/2000/svg" version="1.1" xmlns:xlink="http://www.w3.org/1999/xlink" xmlns:svgjs="http://svgjs.com/svgjs" width="512" height="512" x="0" y="0" viewBox="0 0 131.549 131.549" style="enable-background:new 0 0 512 512" xml:space="preserve" class=""><g>
<g xmlns="http://www.w3.org/2000/svg">
	<g>
		<path d="M7.308,89.374h3.713l23.387,30.344c1.391,1.81,3.534,2.849,5.788,2.849c0.263,0,0.533-0.015,0.799-0.043    c2.533-0.277,4.741-1.858,5.822-4.168L91.131,23.6h33.109c4.037,0,7.309-3.272,7.309-7.308c0-4.037-3.271-7.309-7.309-7.309H86.48    c-2.838,0-5.418,1.642-6.621,4.212l-41.201,88.097L20.405,77.604c-1.381-1.795-3.521-2.848-5.788-2.848H7.308    C3.272,74.756,0,78.027,0,82.065S3.272,89.374,7.308,89.374z" fill="#000000" data-original="#000000" class=""></path>
	</g>
</g>
<g xmlns="http://www.w3.org/2000/svg">
</g>
<g xmlns="http://www.w3.org/2000/svg">
</g>
<g xmlns="http://www.w3.org/2000/svg">
</g>
<g xmlns="http://www.w3.org/2000/svg">
</g>
<g xmlns="http://www.w3.org/2000/svg">
</g>
<g xmlns="http://www.w3.org/2000/svg">
</g>
<g xmlns="http://www.w3.org/2000/svg">
</g>
<g xmlns="http://www.w3.org/2000/svg">
</g>
<g xmlns="http://www.w3.org/2000/svg">
</g>
<g xmlns="http://www.w3.org/2000/svg">
</g>
<g xmlns="http://www.w3.org/2000/svg">
</g>
<g xmlns="http://www.w3.org/2000/svg">
</g>
<g xmlns="http://www.w3.org/2000/svg">
</g>
<g xmlns="http://www.w3.org/2000/svg">
</g>
<g xmlns="http://www.w3.org/2000/svg">
</g>
</g></svg>